<?xml version="1.0" encoding="UTF-8"?>
<svg xmlns="http://www.w3.org/2000/svg" xmlns:xlink="http://www.w3.org/1999/xlink" width="512" height="512" viewBox="0 0 512 512">
<defs>
<linearGradient id="linear-pattern-0" gradientUnits="userSpaceOnUse" x1="87.04" y1="424.96" x2="424.96" y2="87.04">
<stop offset="0" stop-color="rgb(42%, 24%, 82%)" stop-opacity="1"/>
<stop offset="0.333333" stop-color="rgb(26%, 36%, 88%)" stop-opacity="1"/>
<stop offset="0.666667" stop-color="rgb(24%, 78%, 92%)" stop-opacity="1"/>
<stop offset="1" stop-color="rgb(46%, 94%, 86%)" stop-opacity="1"/>
</linearGradient>
</defs>
<path fill-rule="nonzero" fill="rgb(5.5%, 5.8%, 8.6%)" fill-opacity="1" d="M 501.761719 256 C 501.761719 391.730469 391.730469 501.761719 256 501.761719 C 120.269531 501.761719 10.238281 391.730469 10.238281 256 C 10.238281 120.269531 120.269531 10.238281 256 10.238281 C 391.730469 10.238281 501.761719 120.269531 501.761719 256 "/>
<path fill-rule="nonzero" fill="url(#linear-pattern-0)" d="M 251.328125 258.335938 L 254.867188 265.414062 L 256.046875 267.769531 L 257.222656 270.125 L 258.402344 272.480469 L 259.578125 274.835938 L 260.75 277.183594 L 261.925781 279.53125 L 263.097656 281.875 L 264.265625 284.21875 L 265.4375 286.554688 L 266.601562 288.886719 L 268.929688 293.535156 L 270.089844 295.851562 L 271.246094 298.160156 L 272.398438 300.464844 L 273.550781 302.761719 L 274.699219 305.050781 L 275.847656 307.332031 L 276.988281 309.609375 L 278.128906 311.875 L 279.265625 314.128906 L 280.394531 316.378906 L 281.523438 318.617188 L 282.648438 320.84375 L 283.773438 323.0625 L 284.890625 325.269531 L 286.003906 327.464844 L 287.113281 329.652344 L 288.21875 331.824219 L 289.316406 333.988281 L 290.414062 336.136719 L 291.507812 338.273438 L 292.59375 340.394531 L 293.675781 342.503906 L 294.757812 344.601562 L 295.828125 346.683594 L 296.898438 348.75 L 297.964844 350.804688 L 299.023438 352.839844 L 300.078125 354.863281 L 301.128906 356.871094 L 302.171875 358.859375 L 303.214844 360.835938 L 304.25 362.792969 L 305.28125 364.734375 L 306.304688 366.660156 L 307.328125 368.566406 L 308.34375 370.457031 L 309.355469 372.332031 L 310.359375 374.183594 L 311.363281 376.019531 L 312.359375 377.835938 L 313.351562 379.636719 L 314.339844 381.417969 L 315.324219 383.175781 L 316.304688 384.917969 L 317.28125 386.640625 L 318.253906 388.34375 L 319.21875 390.027344 L 320.183594 391.691406 L 321.144531 393.332031 L 322.101562 394.957031 L 323.058594 396.558594 L 324.007812 398.140625 L 324.957031 399.703125 L 325.90625 401.242188 L 326.851562 402.761719 L 327.792969 404.261719 L 328.738281 405.738281 L 329.679688 407.195312 L 330.621094 408.632812 L 331.5625 410.046875 L 332.503906 411.441406 L 333.445312 412.8125 L 334.390625 414.164062 L 335.339844 415.496094 L 336.292969 416.800781 L 337.246094 418.089844 L 338.207031 419.351562 L 339.171875 420.59375 L 340.140625 421.816406 L 341.121094 423.015625 L 342.109375 424.191406 L 343.105469 425.34375 L 344.113281 426.472656 L 345.132812 427.578125 L 346.167969 428.660156 L 347.214844 429.71875 L 348.277344 430.753906 L 349.359375 431.761719 L 350.457031 432.742188 L 351.578125 433.691406 L 352.71875 434.617188 L 353.886719 435.507812 L 355.074219 436.371094 L 356.292969 437.199219 L 357.535156 437.988281 L 358.808594 438.742188 L 360.109375 439.453125 L 361.441406 440.125 L 362.800781 440.746094 L 364.195312 441.320312 L 365.617188 441.839844 L 367.066406 442.304688 L 368.546875 442.710938 L 370.050781 443.054688 L 371.578125 443.332031 L 373.125 443.539062 L 374.6875 443.675781 L 376.261719 443.734375 L 377.84375 443.71875 L 379.425781 443.628906 L 381.003906 443.457031 L 382.574219 443.207031 L 384.132812 442.882812 L 385.667969 442.480469 L 387.175781 442.007812 L 388.65625 441.460938 L 390.105469 440.847656 L 391.511719 440.171875 L 392.882812 439.433594 L 394.207031 438.636719 L 395.488281 437.789062 L 396.722656 436.894531 L 397.914062 435.953125 L 399.058594 434.972656 L 400.15625 433.953125 L 401.207031 432.902344 L 402.21875 431.816406 L 403.183594 430.703125 L 404.109375 429.558594 L 404.996094 428.394531 L 405.847656 427.203125 L 406.660156 425.992188 L 407.441406 424.761719 L 408.191406 423.507812 L 408.910156 422.238281 L 409.601562 420.949219 L 410.265625 419.640625 L 410.90625 418.316406 L 411.523438 416.976562 L 412.117188 415.617188 L 412.691406 414.238281 L 413.246094 412.847656 L 413.78125 411.4375 L 414.300781 410.007812 L 414.804688 408.5625 L 415.292969 407.101562 L 415.765625 405.621094 L 416.226562 404.125 L 416.671875 402.613281 L 417.109375 401.082031 L 417.53125 399.53125 L 417.945312 397.964844 L 418.347656 396.378906 L 418.742188 394.773438 L 419.125 393.152344 L 419.503906 391.515625 L 419.867188 389.855469 L 420.226562 388.179688 L 420.578125 386.488281 L 420.921875 384.773438 L 421.257812 383.042969 L 421.589844 381.296875 L 421.910156 379.527344 L 422.226562 377.746094 L 422.535156 375.941406 L 422.839844 374.121094 L 423.136719 372.285156 L 423.429688 370.429688 L 423.714844 368.554688 L 423.996094 366.664062 L 424.269531 364.757812 L 424.539062 362.832031 L 424.804688 360.890625 L 425.0625 358.933594 L 425.316406 356.960938 L 425.5625 354.96875 L 425.804688 352.960938 L 426.042969 350.941406 L 426.273438 348.902344 L 426.503906 346.847656 L 426.722656 344.78125 L 426.941406 342.699219 L 427.152344 340.601562 L 427.359375 338.492188 L 427.5625 336.367188 L 427.757812 334.226562 L 427.949219 332.074219 L 428.136719 329.910156 L 428.316406 327.734375 L 428.492188 325.542969 L 428.664062 323.34375 L 428.828125 321.128906 L 428.992188 318.90625 L 429.144531 316.671875 L 429.292969 314.425781 L 429.4375 312.167969 L 429.578125 309.902344 L 429.710938 307.628906 L 429.839844 305.34375 L 429.960938 303.050781 L 430.078125 300.75 L 430.1875 298.441406 L 430.292969 296.125 L 430.390625 293.804688 L 430.484375 291.472656 L 430.574219 289.136719 L 430.65625 286.796875 L 430.730469 284.449219 L 430.800781 282.09375 L 430.863281 279.738281 L 430.921875 277.375 L 430.976562 275.011719 L 431.0625 270.269531 L 431.09375 267.894531 L 431.121094 265.519531 L 431.144531 263.140625 L 431.160156 260.761719 L 431.167969 258.378906 L 431.171875 256 L 431.167969 253.621094 L 431.160156 251.238281 L 431.144531 248.859375 L 431.121094 246.480469 L 431.09375 244.105469 L 431.0625 241.730469 L 430.976562 236.988281 L 430.921875 234.625 L 430.863281 232.261719 L 430.800781 229.90625 L 430.730469 227.550781 L 430.65625 225.203125 L 430.574219 222.863281 L 430.484375 220.527344 L 430.390625 218.195312 L 430.292969 215.875 L 430.1875 213.558594 L 430.078125 211.25 L 429.960938 208.949219 L 429.839844 206.65625 L 429.710938 204.371094 L 429.578125 202.097656 L 429.4375 199.832031 L 429.292969 197.574219 L 429.144531 195.328125 L 428.992188 193.09375 L 428.828125 190.871094 L 428.664062 188.65625 L 428.492188 186.457031 L 428.316406 184.265625 L 428.136719 182.089844 L 427.949219 179.925781 L 427.757812 177.773438 L 427.5625 175.632812 L 427.359375 173.507812 L 427.152344 171.398438 L 426.941406 169.300781 L 426.722656 167.21875 L 426.503906 165.152344 L 426.273438 163.097656 L 426.042969 161.058594 L 425.804688 159.039062 L 425.5625 157.03125 L 425.316406 155.039062 L 425.0625 153.066406 L 424.804688 151.109375 L 424.539062 149.167969 L 424.269531 147.242188 L 423.996094 145.335938 L 423.714844 143.445312 L 423.429688 141.570312 L 423.136719 139.714844 L 422.839844 137.878906 L 422.535156 136.058594 L 422.226562 134.253906 L 421.910156 132.472656 L 421.589844 130.703125 L 421.257812 128.957031 L 420.921875 127.226562 L 420.578125 125.511719 L 420.226562 123.820312 L 419.867188 122.144531 L 419.503906 120.484375 L 419.125 118.847656 L 418.742188 117.226562 L 418.347656 115.621094 L 417.945312 114.035156 L 417.53125 112.46875 L 417.109375 110.917969 L 416.671875 109.386719 L 416.226562 107.875 L 415.765625 106.378906 L 415.292969 104.898438 L 414.804688 103.4375 L 414.300781 101.992188 L 413.78125 100.5625 L 413.246094 99.152344 L 412.691406 97.761719 L 412.117188 96.382812 L 411.523438 95.023438 L 410.90625 93.683594 L 410.265625 92.359375 L 409.601562 91.050781 L 408.910156 89.761719 L 408.191406 88.492188 L 407.441406 87.238281 L 406.660156 86.007812 L 405.847656 84.796875 L 404.996094 83.605469 L 404.109375 82.441406 L 403.183594 81.296875 L 402.21875 80.183594 L 401.207031 79.097656 L 400.15625 78.046875 L 399.058594 77.027344 L 397.914062 76.046875 L 396.722656 75.105469 L 395.488281 74.210938 L 394.207031 73.363281 L 392.882812 72.566406 L 391.511719 71.828125 L 390.105469 71.152344 L 388.65625 70.539062 L 387.175781 69.992188 L 385.667969 69.519531 L 384.132812 69.117188 L 382.574219 68.792969 L 381.003906 68.542969 L 379.425781 68.371094 L 377.84375 68.28125 L 376.261719 68.265625 L 374.6875 68.324219 L 373.125 68.460938 L 371.578125 68.667969 L 370.050781 68.945312 L 368.546875 69.289062 L 367.066406 69.695312 L 365.617188 70.160156 L 364.195312 70.679688 L 362.800781 71.253906 L 361.441406 71.875 L 360.109375 72.546875 L 358.808594 73.257812 L 357.535156 74.011719 L 356.292969 74.800781 L 355.074219 75.628906 L 353.886719 76.492188 L 352.71875 77.382812 L 351.578125 78.308594 L 350.457031 79.257812 L 349.359375 80.238281 L 348.277344 81.246094 L 347.214844 82.28125 L 346.167969 83.339844 L 345.132812 84.421875 L 344.113281 85.527344 L 343.105469 86.65625 L 342.109375 87.808594 L 341.121094 88.984375 L 340.140625 90.183594 L 339.171875 91.40625 L 338.207031 92.648438 L 337.246094 93.910156 L 336.292969 95.199219 L 335.339844 96.503906 L 334.390625 97.835938 L 333.445312 99.1875 L 332.503906 100.558594 L 331.5625 101.953125 L 330.621094 103.367188 L 329.679688 104.804688 L 328.738281 106.261719 L 327.792969 107.738281 L 326.851562 109.238281 L 325.90625 110.757812 L 324.957031 112.296875 L 324.007812 113.859375 L 323.058594 115.441406 L 322.101562 117.042969 L 321.144531 118.667969 L 320.183594 120.308594 L 319.21875 121.972656 L 318.253906 123.65625 L 317.28125 125.359375 L 316.304688 127.082031 L 315.324219 128.824219 L 314.339844 130.582031 L 313.351562 132.363281 L 312.359375 134.164062 L 311.363281 135.980469 L 310.359375 137.816406 L 309.355469 139.667969 L 308.34375 141.542969 L 307.328125 143.433594 L 306.304688 145.339844 L 305.28125 147.265625 L 304.25 149.207031 L 303.214844 151.164062 L 302.171875 153.140625 L 301.128906 155.128906 L 300.078125 157.136719 L 299.023438 159.160156 L 297.964844 161.195312 L 296.898438 163.25 L 295.828125 165.316406 L 294.757812 167.398438 L 293.675781 169.496094 L 292.59375 171.605469 L 291.507812 173.726562 L 290.414062 175.863281 L 289.316406 178.011719 L 288.21875 180.175781 L 287.113281 182.347656 L 286.003906 184.535156 L 284.890625 186.730469 L 283.773438 188.9375 L 282.648438 191.15625 L 281.523438 193.382812 L 280.394531 195.621094 L 279.265625 197.871094 L 278.128906 200.125 L 276.988281 202.390625 L 275.847656 204.667969 L 274.699219 206.949219 L 273.550781 209.238281 L 272.398438 211.535156 L 271.246094 213.839844 L 270.089844 216.148438 L 268.929688 218.464844 L 266.601562 223.113281 L 265.4375 225.445312 L 264.265625 227.78125 L 263.097656 230.125 L 261.925781 232.46875 L 260.75 234.816406 L 259.578125 237.164062 L 258.402344 239.519531 L 257.222656 241.875 L 256.046875 244.230469 L 254.867188 246.585938 L 248.96875 258.382812 L 246.609375 263.09375 L 245.429688 265.445312 L 243.070312 270.140625 L 241.886719 272.484375 L 240.707031 274.820312 L 239.523438 277.152344 L 238.34375 279.480469 L 237.160156 281.800781 L 235.976562 284.117188 L 234.792969 286.421875 L 233.605469 288.722656 L 232.421875 291.015625 L 231.234375 293.296875 L 230.046875 295.574219 L 228.859375 297.835938 L 227.671875 300.089844 L 226.480469 302.335938 L 225.292969 304.570312 L 224.101562 306.789062 L 222.910156 309 L 221.71875 311.199219 L 220.523438 313.382812 L 219.332031 315.550781 L 218.136719 317.707031 L 216.941406 319.851562 L 215.746094 321.976562 L 214.546875 324.089844 L 213.351562 326.183594 L 212.152344 328.265625 L 210.957031 330.328125 L 209.757812 332.371094 L 208.558594 334.398438 L 207.355469 336.40625 L 206.15625 338.398438 L 204.957031 340.367188 L 203.753906 342.320312 L 202.554688 344.25 L 201.355469 346.160156 L 200.152344 348.050781 L 198.953125 349.917969 L 197.75 351.761719 L 196.550781 353.585938 L 195.347656 355.386719 L 194.148438 357.164062 L 192.949219 358.914062 L 191.75 360.644531 L 190.554688 362.347656 L 189.355469 364.023438 L 188.160156 365.675781 L 186.964844 367.300781 L 185.773438 368.902344 L 184.582031 370.472656 L 183.390625 372.019531 L 182.203125 373.535156 L 181.019531 375.023438 L 179.835938 376.480469 L 178.65625 377.910156 L 177.480469 379.3125 L 176.304688 380.683594 L 175.136719 382.019531 L 173.96875 383.328125 L 172.804688 384.605469 L 171.648438 385.847656 L 170.496094 387.0625 L 169.347656 388.242188 L 168.207031 389.386719 L 167.070312 390.496094 L 165.941406 391.574219 L 164.820312 392.617188 L 163.707031 393.625 L 162.601562 394.597656 L 161.503906 395.535156 L 160.417969 396.4375 L 159.339844 397.300781 L 158.273438 398.128906 L 157.222656 398.917969 L 156.179688 399.671875 L 155.152344 400.386719 L 154.136719 401.0625 L 153.140625 401.699219 L 152.160156 402.300781 L 151.195312 402.859375 L 150.25 403.382812 L 149.328125 403.867188 L 148.421875 404.3125 L 147.542969 404.71875 L 146.6875 405.085938 L 145.855469 405.417969 L 145.054688 405.710938 L 144.277344 405.96875 L 143.535156 406.1875 L 142.820312 406.375 L 142.144531 406.527344 L 141.5 406.648438 L 140.894531 406.738281 L 140.324219 406.796875 L 139.792969 406.832031 L 139.304688 406.839844 L 138.855469 406.828125 L 138.449219 406.796875 L 138.082031 406.75 L 137.753906 406.6875 L 137.46875 406.617188 L 137.222656 406.542969 L 137.011719 406.460938 L 136.839844 406.382812 L 136.695312 406.308594 L 136.578125 406.238281 L 136.484375 406.175781 L 136.40625 406.125 L 136.347656 406.085938 L 136.292969 406.058594 L 136.242188 406.042969 L 136.1875 406.039062 L 136.128906 406.046875 L 136.054688 406.0625 L 135.960938 406.082031 L 135.847656 406.105469 L 135.710938 406.125 L 135.542969 406.140625 L 135.347656 406.148438 L 135.117188 406.144531 L 134.855469 406.125 L 134.558594 406.082031 L 134.230469 406.019531 L 133.871094 405.929688 L 133.476562 405.808594 L 133.054688 405.65625 L 132.601562 405.46875 L 132.121094 405.246094 L 131.613281 404.988281 L 131.085938 404.6875 L 130.53125 404.347656 L 129.960938 403.964844 L 129.371094 403.542969 L 128.761719 403.074219 L 128.140625 402.566406 L 127.507812 402.015625 L 126.863281 401.421875 L 126.207031 400.785156 L 125.546875 400.105469 L 124.875 399.382812 L 124.199219 398.621094 L 123.523438 397.816406 L 122.839844 396.96875 L 122.15625 396.082031 L 121.472656 395.15625 L 120.785156 394.191406 L 120.105469 393.1875 L 119.421875 392.148438 L 118.742188 391.066406 L 118.066406 389.953125 L 117.394531 388.800781 L 116.726562 387.613281 L 116.0625 386.386719 L 115.40625 385.132812 L 114.753906 383.839844 L 114.109375 382.515625 L 113.472656 381.160156 L 112.839844 379.769531 L 112.21875 378.347656 L 111.601562 376.898438 L 110.992188 375.417969 L 110.394531 373.90625 L 109.804688 372.367188 L 109.222656 370.796875 L 108.648438 369.199219 L 108.085938 367.578125 L 107.53125 365.925781 L 106.988281 364.25 L 106.453125 362.546875 L 105.929688 360.816406 L 105.414062 359.066406 L 104.910156 357.289062 L 104.417969 355.488281 L 103.933594 353.664062 L 103.460938 351.820312 L 102.996094 349.953125 L 102.546875 348.0625 L 102.105469 346.152344 L 101.671875 344.222656 L 101.253906 342.269531 L 100.84375 340.300781 L 100.445312 338.3125 L 100.058594 336.304688 L 99.679688 334.277344 L 99.3125 332.234375 L 98.957031 330.175781 L 98.613281 328.097656 L 98.28125 326.007812 L 97.957031 323.898438 L 97.648438 321.777344 L 97.34375 319.640625 L 97.054688 317.492188 L 96.777344 315.328125 L 96.507812 313.148438 L 96.25 310.960938 L 96.003906 308.761719 L 95.769531 306.546875 L 95.542969 304.324219 L 95.328125 302.089844 L 95.125 299.847656 L 94.933594 297.59375 L 94.75 295.332031 L 94.578125 293.0625 L 94.417969 290.785156 L 94.265625 288.5 L 94.125 286.207031 L 93.996094 283.90625 L 93.878906 281.601562 L 93.769531 279.292969 L 93.671875 276.976562 L 93.582031 274.65625 L 93.503906 272.332031 L 93.4375 270.007812 L 93.382812 267.675781 L 93.335938 265.34375 L 93.296875 263.011719 L 93.273438 260.675781 L 93.257812 258.335938 L 93.253906 256 L 93.257812 253.664062 L 93.273438 251.324219 L 93.296875 248.988281 L 93.335938 246.65625 L 93.382812 244.324219 L 93.4375 241.992188 L 93.503906 239.667969 L 93.582031 237.34375 L 93.671875 235.023438 L 93.769531 232.707031 L 93.878906 230.398438 L 93.996094 228.09375 L 94.125 225.792969 L 94.265625 223.5 L 94.417969 221.214844 L 94.578125 218.9375 L 94.75 216.667969 L 94.933594 214.40625 L 95.125 212.152344 L 95.328125 209.910156 L 95.542969 207.675781 L 95.769531 205.453125 L 96.003906 203.238281 L 96.25 201.039062 L 96.507812 198.851562 L 96.777344 196.671875 L 97.054688 194.507812 L 97.34375 192.359375 L 97.648438 190.222656 L 97.957031 188.101562 L 98.28125 185.992188 L 98.613281 183.902344 L 98.957031 181.824219 L 99.3125 179.765625 L 99.679688 177.722656 L 100.058594 175.695312 L 100.445312 173.6875 L 100.84375 171.699219 L 101.253906 169.730469 L 101.671875 167.777344 L 102.105469 165.847656 L 102.546875 163.9375 L 102.996094 162.046875 L 103.460938 160.179688 L 103.933594 158.335938 L 104.417969 156.511719 L 104.910156 154.710938 L 105.414062 152.933594 L 105.929688 151.183594 L 106.453125 149.453125 L 106.988281 147.75 L 107.53125 146.074219 L 108.085938 144.421875 L 108.648438 142.800781 L 109.222656 141.203125 L 109.804688 139.632812 L 110.394531 138.09375 L 110.992188 136.582031 L 111.601562 135.101562 L 112.21875 133.652344 L 112.839844 132.230469 L 113.472656 130.839844 L 114.109375 129.484375 L 114.753906 128.160156 L 115.40625 126.867188 L 116.0625 125.613281 L 116.726562 124.386719 L 117.394531 123.199219 L 118.066406 122.046875 L 118.742188 120.933594 L 119.421875 119.851562 L 120.105469 118.8125 L 120.785156 117.808594 L 121.472656 116.84375 L 122.15625 115.917969 L 122.839844 115.03125 L 123.523438 114.183594 L 124.199219 113.378906 L 124.875 112.617188 L 125.546875 111.894531 L 126.207031 111.214844 L 126.863281 110.578125 L 127.507812 109.984375 L 128.140625 109.433594 L 128.761719 108.925781 L 129.371094 108.457031 L 129.960938 108.035156 L 130.53125 107.652344 L 131.085938 107.3125 L 131.613281 107.011719 L 132.121094 106.753906 L 132.601562 106.53125 L 133.054688 106.34375 L 133.476562 106.191406 L 133.871094 106.070312 L 134.230469 105.980469 L 134.558594 105.917969 L 134.855469 105.875 L 135.117188 105.855469 L 135.347656 105.851562 L 135.542969 105.859375 L 135.710938 105.875 L 135.847656 105.894531 L 135.960938 105.917969 L 136.054688 105.9375 L 136.128906 105.953125 L 136.1875 105.960938 L 136.242188 105.957031 L 136.292969 105.941406 L 136.347656 105.914062 L 136.40625 105.875 L 136.484375 105.824219 L 136.578125 105.761719 L 136.695312 105.691406 L 136.839844 105.617188 L 137.011719 105.539062 L 137.222656 105.457031 L 137.46875 105.382812 L 137.753906 105.3125 L 138.082031 105.25 L 138.449219 105.203125 L 138.855469 105.171875 L 139.304688 105.160156 L 139.792969 105.167969 L 140.324219 105.203125 L 140.894531 105.261719 L 141.5 105.351562 L 142.144531 105.472656 L 142.820312 105.625 L 143.535156 105.8125 L 144.277344 106.03125 L 145.054688 106.289062 L 145.855469 106.582031 L 146.6875 106.914062 L 147.542969 107.28125 L 148.421875 107.6875 L 149.328125 108.132812 L 150.25 108.617188 L 151.195312 109.140625 L 152.160156 109.699219 L 153.140625 110.300781 L 154.136719 110.9375 L 155.152344 111.613281 L 156.179688 112.328125 L 157.222656 113.082031 L 158.273438 113.871094 L 159.339844 114.699219 L 160.417969 115.5625 L 161.503906 116.464844 L 162.601562 117.402344 L 163.707031 118.375 L 164.820312 119.382812 L 165.941406 120.425781 L 167.070312 121.503906 L 168.207031 122.613281 L 169.347656 123.757812 L 170.496094 124.9375 L 171.648438 126.152344 L 172.804688 127.394531 L 173.96875 128.671875 L 175.136719 129.980469 L 176.304688 131.316406 L 177.480469 132.6875 L 178.65625 134.089844 L 179.835938 135.519531 L 181.019531 136.976562 L 182.203125 138.464844 L 183.390625 139.980469 L 184.582031 141.527344 L 185.773438 143.097656 L 186.964844 144.699219 L 188.160156 146.324219 L 189.355469 147.976562 L 190.554688 149.652344 L 191.75 151.355469 L 192.949219 153.085938 L 194.148438 154.835938 L 195.347656 156.613281 L 196.550781 158.414062 L 197.75 160.238281 L 198.953125 162.082031 L 200.152344 163.949219 L 201.355469 165.839844 L 202.554688 167.75 L 203.753906 169.679688 L 204.957031 171.632812 L 206.15625 173.601562 L 207.355469 175.59375 L 208.558594 177.601562 L 209.757812 179.628906 L 210.957031 181.671875 L 212.152344 183.734375 L 213.351562 185.816406 L 214.546875 187.910156 L 215.746094 190.023438 L 216.941406 192.148438 L 218.136719 194.292969 L 219.332031 196.449219 L 220.523438 198.617188 L 221.71875 200.800781 L 222.910156 203 L 224.101562 205.210938 L 225.292969 207.429688 L 226.480469 209.664062 L 227.671875 211.910156 L 228.859375 214.164062 L 230.046875 216.425781 L 231.234375 218.703125 L 232.421875 220.984375 L 233.605469 223.277344 L 234.792969 225.578125 L 235.976562 227.882812 L 237.160156 230.199219 L 238.34375 232.519531 L 239.523438 234.847656 L 240.707031 237.179688 L 241.886719 239.515625 L 243.070312 241.859375 L 245.429688 246.554688 L 246.609375 248.90625 L 248.96875 253.617188 Z M 259.492188 251.304688 L 257.132812 246.585938 L 255.953125 244.230469 L 254.777344 241.875 L 253.597656 239.519531 L 252.421875 237.164062 L 251.25 234.816406 L 250.074219 232.46875 L 248.902344 230.125 L 247.734375 227.78125 L 246.5625 225.445312 L 245.398438 223.113281 L 243.070312 218.464844 L 241.910156 216.148438 L 240.753906 213.839844 L 239.601562 211.535156 L 238.449219 209.238281 L 237.300781 206.949219 L 236.152344 204.667969 L 235.011719 202.390625 L 233.871094 200.125 L 232.734375 197.871094 L 231.605469 195.621094 L 230.476562 193.382812 L 229.351562 191.15625 L 228.226562 188.9375 L 227.109375 186.730469 L 225.996094 184.535156 L 224.886719 182.347656 L 223.78125 180.175781 L 222.683594 178.011719 L 221.585938 175.863281 L 220.492188 173.726562 L 219.40625 171.605469 L 218.324219 169.496094 L 217.242188 167.398438 L 216.171875 165.316406 L 215.101562 163.25 L 214.035156 161.195312 L 212.976562 159.160156 L 211.921875 157.136719 L 210.871094 155.128906 L 209.828125 153.140625 L 208.785156 151.164062 L 207.75 149.207031 L 206.71875 147.265625 L 205.695312 145.339844 L 204.671875 143.433594 L 203.65625 141.542969 L 202.644531 139.667969 L 201.640625 137.816406 L 200.636719 135.980469 L 199.640625 134.164062 L 198.648438 132.363281 L 197.660156 130.582031 L 196.675781 128.824219 L 195.695312 127.082031 L 194.71875 125.359375 L 193.746094 123.65625 L 192.78125 121.972656 L 191.816406 120.308594 L 190.855469 118.667969 L 189.898438 117.042969 L 188.941406 115.441406 L 187.992188 113.859375 L 187.042969 112.296875 L 186.09375 110.757812 L 185.148438 109.238281 L 184.207031 107.738281 L 183.261719 106.261719 L 182.320312 104.804688 L 181.378906 103.367188 L 180.4375 101.953125 L 179.496094 100.558594 L 178.554688 99.1875 L 177.609375 97.835938 L 176.660156 96.503906 L 175.707031 95.199219 L 174.753906 93.910156 L 173.792969 92.648438 L 172.828125 91.40625 L 171.859375 90.183594 L 170.878906 88.984375 L 169.890625 87.808594 L 168.894531 86.65625 L 167.886719 85.527344 L 166.867188 84.421875 L 165.832031 83.339844 L 164.785156 82.28125 L 163.722656 81.246094 L 162.640625 80.238281 L 161.542969 79.257812 L 160.421875 78.308594 L 159.28125 77.382812 L 158.113281 76.492188 L 156.925781 75.628906 L 155.707031 74.800781 L 154.464844 74.011719 L 153.191406 73.257812 L 151.890625 72.546875 L 150.558594 71.875 L 149.199219 71.253906 L 147.804688 70.679688 L 146.382812 70.160156 L 144.933594 69.695312 L 143.453125 69.289062 L 141.949219 68.945312 L 140.421875 68.667969 L 138.875 68.460938 L 137.3125 68.324219 L 135.738281 68.265625 L 134.15625 68.28125 L 132.574219 68.371094 L 130.996094 68.542969 L 129.425781 68.792969 L 127.867188 69.117188 L 126.332031 69.519531 L 124.824219 69.992188 L 123.34375 70.539062 L 121.894531 71.152344 L 120.488281 71.828125 L 119.117188 72.566406 L 117.792969 73.363281 L 116.511719 74.210938 L 115.277344 75.105469 L 114.085938 76.046875 L 112.941406 77.027344 L 111.84375 78.046875 L 110.792969 79.097656 L 109.78125 80.183594 L 108.816406 81.296875 L 107.890625 82.441406 L 107.003906 83.605469 L 106.152344 84.796875 L 105.339844 86.007812 L 104.558594 87.238281 L 103.808594 88.492188 L 103.089844 89.761719 L 102.398438 91.050781 L 101.734375 92.359375 L 101.09375 93.683594 L 100.476562 95.023438 L 99.882812 96.382812 L 99.308594 97.761719 L 98.753906 99.152344 L 98.21875 100.5625 L 97.699219 101.992188 L 97.195312 103.4375 L 96.707031 104.898438 L 96.234375 106.378906 L 95.773438 107.875 L 95.328125 109.386719 L 94.890625 110.917969 L 94.46875 112.46875 L 94.054688 114.035156 L 93.652344 115.621094 L 93.257812 117.226562 L 92.875 118.847656 L 92.496094 120.484375 L 92.132812 122.144531 L 91.773438 123.820312 L 91.421875 125.511719 L 91.078125 127.226562 L 90.742188 128.957031 L 90.410156 130.703125 L 90.089844 132.472656 L 89.773438 134.253906 L 89.464844 136.058594 L 89.160156 137.878906 L 88.863281 139.714844 L 88.570312 141.570312 L 88.285156 143.445312 L 88.003906 145.335938 L 87.730469 147.242188 L 87.460938 149.167969 L 87.195312 151.109375 L 86.9375 153.066406 L 86.683594 155.039062 L 86.4375 157.03125 L 86.195312 159.039062 L 85.957031 161.058594 L 85.726562 163.097656 L 85.496094 165.152344 L 85.277344 167.21875 L 85.058594 169.300781 L 84.847656 171.398438 L 84.640625 173.507812 L 84.4375 175.632812 L 84.242188 177.773438 L 84.050781 179.925781 L 83.863281 182.089844 L 83.683594 184.265625 L 83.507812 186.457031 L 83.335938 188.65625 L 83.171875 190.871094 L 83.007812 193.09375 L 82.855469 195.328125 L 82.707031 197.574219 L 82.5625 199.832031 L 82.421875 202.097656 L 82.289062 204.371094 L 82.160156 206.65625 L 82.039062 208.949219 L 81.921875 211.25 L 81.8125 213.558594 L 81.707031 215.875 L 81.609375 218.195312 L 81.515625 220.527344 L 81.425781 222.863281 L 81.34375 225.203125 L 81.269531 227.550781 L 81.199219 229.90625 L 81.136719 232.261719 L 81.078125 234.625 L 81.023438 236.988281 L 80.9375 241.730469 L 80.90625 244.105469 L 80.878906 246.480469 L 80.855469 248.859375 L 80.839844 251.238281 L 80.832031 253.621094 L 80.828125 256 L 80.832031 258.378906 L 80.839844 260.761719 L 80.855469 263.140625 L 80.878906 265.519531 L 80.90625 267.894531 L 80.9375 270.269531 L 81.023438 275.011719 L 81.078125 277.375 L 81.136719 279.738281 L 81.199219 282.09375 L 81.269531 284.449219 L 81.34375 286.796875 L 81.425781 289.136719 L 81.515625 291.472656 L 81.609375 293.804688 L 81.707031 296.125 L 81.8125 298.441406 L 81.921875 300.75 L 82.039062 303.050781 L 82.160156 305.34375 L 82.289062 307.628906 L 82.421875 309.902344 L 82.5625 312.167969 L 82.707031 314.425781 L 82.855469 316.671875 L 83.007812 318.90625 L 83.171875 321.128906 L 83.335938 323.34375 L 83.507812 325.542969 L 83.683594 327.734375 L 83.863281 329.910156 L 84.050781 332.074219 L 84.242188 334.226562 L 84.4375 336.367188 L 84.640625 338.492188 L 84.847656 340.601562 L 85.058594 342.699219 L 85.277344 344.78125 L 85.496094 346.847656 L 85.726562 348.902344 L 85.957031 350.941406 L 86.195312 352.960938 L 86.4375 354.96875 L 86.683594 356.960938 L 86.9375 358.933594 L 87.195312 360.890625 L 87.460938 362.832031 L 87.730469 364.757812 L 88.003906 366.664062 L 88.285156 368.554688 L 88.570312 370.429688 L 88.863281 372.285156 L 89.160156 374.121094 L 89.464844 375.941406 L 89.773438 377.746094 L 90.089844 379.527344 L 90.410156 381.296875 L 90.742188 383.042969 L 91.078125 384.773438 L 91.421875 386.488281 L 91.773438 388.179688 L 92.132812 389.855469 L 92.496094 391.515625 L 92.875 393.152344 L 93.257812 394.773438 L 93.652344 396.378906 L 94.054688 397.964844 L 94.46875 399.53125 L 94.890625 401.082031 L 95.328125 402.613281 L 95.773438 404.125 L 96.234375 405.621094 L 96.707031 407.101562 L 97.195312 408.5625 L 97.699219 410.007812 L 98.21875 411.4375 L 98.753906 412.847656 L 99.308594 414.238281 L 99.882812 415.617188 L 100.476562 416.976562 L 101.09375 418.316406 L 101.734375 419.640625 L 102.398438 420.949219 L 103.089844 422.238281 L 103.808594 423.507812 L 104.558594 424.761719 L 105.339844 425.992188 L 106.152344 427.203125 L 107.003906 428.394531 L 107.890625 429.558594 L 108.816406 430.703125 L 109.78125 431.816406 L 110.792969 432.902344 L 111.84375 433.953125 L 112.941406 434.972656 L 114.085938 435.953125 L 115.277344 436.894531 L 116.511719 437.789062 L 117.792969 438.636719 L 119.117188 439.433594 L 120.488281 440.171875 L 121.894531 440.847656 L 123.34375 441.460938 L 124.824219 442.007812 L 126.332031 442.480469 L 127.867188 442.882812 L 129.425781 443.207031 L 130.996094 443.457031 L 132.574219 443.628906 L 134.15625 443.71875 L 135.738281 443.734375 L 137.3125 443.675781 L 138.875 443.539062 L 140.421875 443.332031 L 141.949219 443.054688 L 143.453125 442.710938 L 144.933594 442.304688 L 146.382812 441.839844 L 147.804688 441.320312 L 149.199219 440.746094 L 150.558594 440.125 L 151.890625 439.453125 L 153.191406 438.742188 L 154.464844 437.988281 L 155.707031 437.199219 L 156.925781 436.371094 L 158.113281 435.507812 L 159.28125 434.617188 L 160.421875 433.691406 L 161.542969 432.742188 L 162.640625 431.761719 L 163.722656 430.753906 L 164.785156 429.71875 L 165.832031 428.660156 L 166.867188 427.578125 L 167.886719 426.472656 L 168.894531 425.34375 L 169.890625 424.191406 L 170.878906 423.015625 L 171.859375 421.816406 L 172.828125 420.59375 L 173.792969 419.351562 L 174.753906 418.089844 L 175.707031 416.800781 L 176.660156 415.496094 L 177.609375 414.164062 L 178.554688 412.8125 L 179.496094 411.441406 L 180.4375 410.046875 L 181.378906 408.632812 L 182.320312 407.195312 L 183.261719 405.738281 L 184.207031 404.261719 L 185.148438 402.761719 L 186.09375 401.242188 L 187.042969 399.703125 L 187.992188 398.140625 L 188.941406 396.558594 L 189.898438 394.957031 L 190.855469 393.332031 L 191.816406 391.691406 L 192.78125 390.027344 L 193.746094 388.34375 L 194.71875 386.640625 L 195.695312 384.917969 L 196.675781 383.175781 L 197.660156 381.417969 L 198.648438 379.636719 L 199.640625 377.835938 L 200.636719 376.019531 L 201.640625 374.183594 L 202.644531 372.332031 L 203.65625 370.457031 L 204.671875 368.566406 L 205.695312 366.660156 L 206.71875 364.734375 L 207.75 362.792969 L 208.785156 360.835938 L 209.828125 358.859375 L 210.871094 356.871094 L 211.921875 354.863281 L 212.976562 352.839844 L 214.035156 350.804688 L 215.101562 348.75 L 216.171875 346.683594 L 217.242188 344.601562 L 218.324219 342.503906 L 219.40625 340.394531 L 220.492188 338.273438 L 221.585938 336.136719 L 222.683594 333.988281 L 223.78125 331.824219 L 224.886719 329.652344 L 225.996094 327.464844 L 227.109375 325.269531 L 228.226562 323.0625 L 229.351562 320.84375 L 230.476562 318.617188 L 231.605469 316.378906 L 232.734375 314.128906 L 233.871094 311.875 L 235.011719 309.609375 L 236.152344 307.332031 L 237.300781 305.050781 L 238.449219 302.761719 L 239.601562 300.464844 L 240.753906 298.160156 L 241.910156 295.851562 L 243.070312 293.535156 L 245.398438 288.886719 L 246.5625 286.554688 L 247.734375 284.21875 L 248.902344 281.875 L 250.074219 279.53125 L 251.25 277.183594 L 252.421875 274.835938 L 253.597656 272.480469 L 254.777344 270.125 L 255.953125 267.769531 L 257.132812 265.414062 L 263.03125 253.617188 L 265.390625 248.90625 L 266.570312 246.554688 L 268.929688 241.859375 L 270.113281 239.515625 L 271.292969 237.179688 L 272.476562 234.847656 L 273.65625 232.519531 L 274.839844 230.199219 L 276.023438 227.882812 L 277.207031 225.578125 L 278.394531 223.277344 L 279.578125 220.984375 L 280.765625 218.703125 L 281.953125 216.425781 L 283.140625 214.164062 L 284.328125 211.910156 L 285.519531 209.664062 L 286.707031 207.429688 L 287.898438 205.210938 L 289.089844 203 L 290.28125 200.800781 L 291.476562 198.617188 L 292.667969 196.449219 L 293.863281 194.292969 L 295.058594 192.148438 L 296.253906 190.023438 L 297.453125 187.910156 L 298.648438 185.816406 L 299.847656 183.734375 L 301.042969 181.671875 L 302.242188 179.628906 L 303.441406 177.601562 L 304.644531 175.59375 L 305.84375 173.601562 L 307.042969 171.632812 L 308.246094 169.679688 L 309.445312 167.75 L 310.644531 165.839844 L 311.847656 163.949219 L 313.046875 162.082031 L 314.25 160.238281 L 315.449219 158.414062 L 316.652344 156.613281 L 317.851562 154.835938 L 319.050781 153.085938 L 320.25 151.355469 L 321.445312 149.652344 L 322.644531 147.976562 L 323.839844 146.324219 L 325.035156 144.699219 L 326.226562 143.097656 L 327.417969 141.527344 L 328.609375 139.980469 L 329.796875 138.464844 L 330.980469 136.976562 L 332.164062 135.519531 L 333.34375 134.089844 L 334.519531 132.6875 L 335.695312 131.316406 L 336.863281 129.980469 L 338.03125 128.671875 L 339.195312 127.394531 L 340.351562 126.152344 L 341.503906 124.9375 L 342.652344 123.757812 L 343.792969 122.613281 L 344.929688 121.503906 L 346.058594 120.425781 L 347.179688 119.382812 L 348.292969 118.375 L 349.398438 117.402344 L 350.496094 116.464844 L 351.582031 115.5625 L 352.660156 114.699219 L 353.726562 113.871094 L 354.777344 113.082031 L 355.820312 112.328125 L 356.847656 111.613281 L 357.863281 110.9375 L 358.859375 110.300781 L 359.839844 109.699219 L 360.804688 109.140625 L 361.75 108.617188 L 362.671875 108.132812 L 363.578125 107.6875 L 364.457031 107.28125 L 365.3125 106.914062 L 366.144531 106.582031 L 366.945312 106.289062 L 367.722656 106.03125 L 368.464844 105.8125 L 369.179688 105.625 L 369.855469 105.472656 L 370.5 105.351562 L 371.105469 105.261719 L 371.675781 105.203125 L 372.207031 105.167969 L 372.695312 105.160156 L 373.144531 105.171875 L 373.550781 105.203125 L 373.917969 105.25 L 374.246094 105.3125 L 374.53125 105.382812 L 374.777344 105.457031 L 374.988281 105.539062 L 375.160156 105.617188 L 375.304688 105.691406 L 375.421875 105.761719 L 375.515625 105.824219 L 375.59375 105.875 L 375.652344 105.914062 L 375.707031 105.941406 L 375.757812 105.957031 L 375.8125 105.960938 L 375.871094 105.953125 L 375.945312 105.9375 L 376.039062 105.917969 L 376.152344 105.894531 L 376.289062 105.875 L 376.457031 105.859375 L 376.652344 105.851562 L 376.882812 105.855469 L 377.144531 105.875 L 377.441406 105.917969 L 377.769531 105.980469 L 378.128906 106.070312 L 378.523438 106.191406 L 378.945312 106.34375 L 379.398438 106.53125 L 379.878906 106.753906 L 380.386719 107.011719 L 380.914062 107.3125 L 381.46875 107.652344 L 382.039062 108.035156 L 382.628906 108.457031 L 383.238281 108.925781 L 383.859375 109.433594 L 384.492188 109.984375 L 385.136719 110.578125 L 385.792969 111.214844 L 386.453125 111.894531 L 387.125 112.617188 L 387.800781 113.378906 L 388.476562 114.183594 L 389.160156 115.03125 L 389.84375 115.917969 L 390.527344 116.84375 L 391.214844 117.808594 L 391.894531 118.8125 L 392.578125 119.851562 L 393.257812 120.933594 L 393.933594 122.046875 L 394.605469 123.199219 L 395.273438 124.386719 L 395.9375 125.613281 L 396.59375 126.867188 L 397.246094 128.160156 L 397.890625 129.484375 L 398.527344 130.839844 L 399.160156 132.230469 L 399.78125 133.652344 L 400.398438 135.101562 L 401.007812 136.582031 L 401.605469 138.09375 L 402.195312 139.632812 L 402.777344 141.203125 L 403.351562 142.800781 L 403.914062 144.421875 L 404.46875 146.074219 L 405.011719 147.75 L 405.546875 149.453125 L 406.070312 151.183594 L 406.585938 152.933594 L 407.089844 154.710938 L 407.582031 156.511719 L 408.066406 158.335938 L 408.539062 160.179688 L 409.003906 162.046875 L 409.453125 163.9375 L 409.894531 165.847656 L 410.328125 167.777344 L 410.746094 169.730469 L 411.15625 171.699219 L 411.554688 173.6875 L 411.941406 175.695312 L 412.320312 177.722656 L 412.6875 179.765625 L 413.042969 181.824219 L 413.386719 183.902344 L 413.71875 185.992188 L 414.042969 188.101562 L 414.351562 190.222656 L 414.65625 192.359375 L 414.945312 194.507812 L 415.222656 196.671875 L 415.492188 198.851562 L 415.75 201.039062 L 415.996094 203.238281 L 416.230469 205.453125 L 416.457031 207.675781 L 416.671875 209.910156 L 416.875 212.152344 L 417.066406 214.40625 L 417.25 216.667969 L 417.421875 218.9375 L 417.582031 221.214844 L 417.734375 223.5 L 417.875 225.792969 L 418.003906 228.09375 L 418.121094 230.398438 L 418.230469 232.707031 L 418.328125 235.023438 L 418.417969 237.34375 L 418.496094 239.667969 L 418.5625 241.992188 L 418.617188 244.324219 L 418.664062 246.65625 L 418.703125 248.988281 L 418.726562 251.324219 L 418.742188 253.664062 L 418.746094 256 L 418.742188 258.335938 L 418.726562 260.675781 L 418.703125 263.011719 L 418.664062 265.34375 L 418.617188 267.675781 L 418.5625 270.007812 L 418.496094 272.332031 L 418.417969 274.65625 L 418.328125 276.976562 L 418.230469 279.292969 L 418.121094 281.601562 L 418.003906 283.90625 L 417.875 286.207031 L 417.734375 288.5 L 417.582031 290.785156 L 417.421875 293.0625 L 417.25 295.332031 L 417.066406 297.59375 L 416.875 299.847656 L 416.671875 302.089844 L 416.457031 304.324219 L 416.230469 306.546875 L 415.996094 308.761719 L 415.75 310.960938 L 415.492188 313.148438 L 415.222656 315.328125 L 414.945312 317.492188 L 414.65625 319.640625 L 414.351562 321.777344 L 414.042969 323.898438 L 413.71875 326.007812 L 413.386719 328.097656 L 413.042969 330.175781 L 412.6875 332.234375 L 412.320312 334.277344 L 411.941406 336.304688 L 411.554688 338.3125 L 411.15625 340.300781 L 410.746094 342.269531 L 410.328125 344.222656 L 409.894531 346.152344 L 409.453125 348.0625 L 409.003906 349.953125 L 408.539062 351.820312 L 408.066406 353.664062 L 407.582031 355.488281 L 407.089844 357.289062 L 406.585938 359.066406 L 406.070312 360.816406 L 405.546875 362.546875 L 405.011719 364.25 L 404.46875 365.925781 L 403.914062 367.578125 L 403.351562 369.199219 L 402.777344 370.796875 L 402.195312 372.367188 L 401.605469 373.90625 L 401.007812 375.417969 L 400.398438 376.898438 L 399.78125 378.347656 L 399.160156 379.769531 L 398.527344 381.160156 L 397.890625 382.515625 L 397.246094 383.839844 L 396.59375 385.132812 L 395.9375 386.386719 L 395.273438 387.613281 L 394.605469 388.800781 L 393.933594 389.953125 L 393.257812 391.066406 L 392.578125 392.148438 L 391.894531 393.1875 L 391.214844 394.191406 L 390.527344 395.15625 L 389.84375 396.082031 L 389.160156 396.96875 L 388.476562 397.816406 L 387.800781 398.621094 L 387.125 399.382812 L 386.453125 400.105469 L 385.792969 400.785156 L 385.136719 401.421875 L 384.492188 402.015625 L 383.859375 402.566406 L 383.238281 403.074219 L 382.628906 403.542969 L 382.039062 403.964844 L 381.46875 404.347656 L 380.914062 404.6875 L 380.386719 404.988281 L 379.878906 405.246094 L 379.398438 405.46875 L 378.945312 405.65625 L 378.523438 405.808594 L 378.128906 405.929688 L 377.769531 406.019531 L 377.441406 406.082031 L 377.144531 406.125 L 376.882812 406.144531 L 376.652344 406.148438 L 376.457031 406.140625 L 376.289062 406.125 L 376.152344 406.105469 L 376.039062 406.082031 L 375.945312 406.0625 L 375.871094 406.046875 L 375.8125 406.039062 L 375.757812 406.042969 L 375.707031 406.058594 L 375.652344 406.085938 L 375.59375 406.125 L 375.515625 406.175781 L 375.421875 406.238281 L 375.304688 406.308594 L 375.160156 406.382812 L 374.988281 406.460938 L 374.777344 406.542969 L 374.53125 406.617188 L 374.246094 406.6875 L 373.917969 406.75 L 373.550781 406.796875 L 373.144531 406.828125 L 372.695312 406.839844 L 372.207031 406.832031 L 371.675781 406.796875 L 371.105469 406.738281 L 370.5 406.648438 L 369.855469 406.527344 L 369.179688 406.375 L 368.464844 406.1875 L 367.722656 405.96875 L 366.945312 405.710938 L 366.144531 405.417969 L 365.3125 405.085938 L 364.457031 404.71875 L 363.578125 404.3125 L 362.671875 403.867188 L 361.75 403.382812 L 360.804688 402.859375 L 359.839844 402.300781 L 358.859375 401.699219 L 357.863281 401.0625 L 356.847656 400.386719 L 355.820312 399.671875 L 354.777344 398.917969 L 353.726562 398.128906 L 352.660156 397.300781 L 351.582031 396.4375 L 350.496094 395.535156 L 349.398438 394.597656 L 348.292969 393.625 L 347.179688 392.617188 L 346.058594 391.574219 L 344.929688 390.496094 L 343.792969 389.386719 L 342.652344 388.242188 L 341.503906 387.0625 L 340.351562 385.847656 L 339.195312 384.605469 L 338.03125 383.328125 L 336.863281 382.019531 L 335.695312 380.683594 L 334.519531 379.3125 L 333.34375 377.910156 L 332.164062 376.480469 L 330.980469 375.023438 L 329.796875 373.535156 L 328.609375 372.019531 L 327.417969 370.472656 L 326.226562 368.902344 L 325.035156 367.300781 L 323.839844 365.675781 L 322.644531 364.023438 L 321.445312 362.347656 L 320.25 360.644531 L 319.050781 358.914062 L 317.851562 357.164062 L 316.652344 355.386719 L 315.449219 353.585938 L 314.25 351.761719 L 313.046875 349.917969 L 311.847656 348.050781 L 310.644531 346.160156 L 309.445312 344.25 L 308.246094 342.320312 L 307.042969 340.367188 L 305.84375 338.398438 L 304.644531 336.40625 L 303.441406 334.398438 L 302.242188 332.371094 L 301.042969 330.328125 L 299.847656 328.265625 L 298.648438 326.183594 L 297.453125 324.089844 L 296.253906 321.976562 L 295.058594 319.851562 L 293.863281 317.707031 L 292.667969 315.550781 L 291.476562 313.382812 L 290.28125 311.199219 L 289.089844 309 L 287.898438 306.789062 L 286.707031 304.570312 L 285.519531 302.335938 L 284.328125 300.089844 L 283.140625 297.835938 L 281.953125 295.574219 L 280.765625 293.296875 L 279.578125 291.015625 L 278.394531 288.722656 L 277.207031 286.421875 L 276.023438 284.117188 L 274.839844 281.800781 L 273.65625 279.480469 L 272.476562 277.152344 L 271.292969 274.820312 L 270.113281 272.484375 L 268.929688 270.140625 L 266.570312 265.445312 L 265.390625 263.09375 L 263.03125 258.382812 Z M 259.492188 251.304688 "/>
</svg>
